# xmcd
# 
# Track frame offsets:
#     150
#     11560
#     25828
#     40561
#     52087
#     64538
#     76341
#     93545
#     107855
#     119740
#     136475
#     149812
# 
# Disc length: 2230
# 
# Revision: 1
# Processed by: cddbd v1.5.2PL0 Copyright (c) Steve Scherf et al.
# Submitted via: fre:ac v1.1beta1pre5
# 
DISCID=aa08b40c
DTITLE=Guylaine Tanguay - Guylaine Tanguay  Classique, Country
DYEAR=2016
DGENRE=Country
TTITLE0=Guylaine Tanguay - Ring of Fire
TTITLE1=Guylaine Tanguay - Vole Colombe
TTITLE2=Guylaine Tanguay - I Will Always Love You
TTITLE3=Guylaine Tanguay - Release Me
TTITLE4=Guylaine Tanguay - Act Naturally
TTITLE5=Guylaine Tanguay - Il m'a montré à Yodler
TTITLE6=Guylaine Tanguay - S'il n'y avait plus de lendemain
TTITLE7=ine Tanguay - Tommy Cash - Jackson
TTITLE8=Guylaine Tanguay - Un coin du ciel
TTITLE9=Guylaine Tanguay - Always on my mind
TTITLE10=Guylaine Tanguay - Jolene
TTITLE11=Guylaine Tanguay - Danse avec moi
EXTD=
EXTT0=
EXTT1=
EXTT2=
EXTT3=
EXTT4=
EXTT5=
EXTT6=
EXTT7=
EXTT8=
EXTT9=
EXTT10=
EXTT11=
PLAYORDER=
